<svg xmlns="http://www.w3.org/2000/svg" viewBox="0 0 127.82 135.48"><defs><style>.cls-1,.cls-2{fill:#cea263;}.cls-2{font-size:5.3px;font-family:Arapey-Regular, Arapey Regular;letter-spacing:0.01em;}.cls-3{letter-spacing:0em;}</style></defs><g id="Layer_2" data-name="Layer 2"><g id="Layer_2-2" data-name="Layer 2"><g id="Wreath"><path class="cls-1" d="M86.59,122a15.89,15.89,0,0,0,6.24-7.53,77.81,77.81,0,0,1,7.64-8.77.12.12,0,0,1,.21.1c-.05,2.09-3,10-6.51,13a.83.83,0,0,0,.37,1.47,4.07,4.07,0,0,0,2.32-.47c.27-.13.54-.27.79-.42s.52-.38.81-.51a3.09,3.09,0,0,1,.72-.2c.33-.06.65-.1,1-.13,1.13-.08,2.27-.08,3.41-.07l2.14,0c.57,0,1.14,0,1.71,0l.57,0c1.5-.13,5.81-2.9,7.17-3.91a.07.07,0,0,1,.1.1c-1.54,2.12-8.91,10.64-19.77,8.47-2.68-.65-2-2.15-8.84-1C86.56,122.17,86.51,122.05,86.59,122Z"/><path class="cls-1" d="M102.7,114c-.35,0,2.08-3.43,2.33-11.17.74-4.78,4-10,4-10,1,3.77.71,11.88-2,15.48-.83,2.42.35,3.6,4.39-1,5.82-4,10.41-4.83,12.87-8.83S121.52,114.18,102.7,114Z"/><path class="cls-1" d="M113.31,102c-.13.07.7-8.63-.14-11.54s.29-10.4.29-10.4,3.16,6.36,2.71,12.33c-.09,2.17-.64,5.86,3.16.29a86.77,86.77,0,0,1,8.48-10.11C128.22,90.62,117.26,100,113.31,102Z"/><path class="cls-1" d="M113.51,65.66a.1.1,0,0,0-.17.07c.16,1.53,1,8.83,3.38,13.25a50.76,50.76,0,0,1,2.82,5.8.32.32,0,0,0,.49.14,19.51,19.51,0,0,0,6.3-8.9c1.7-5.62,1.78-12.65.37-11.76-1,1.4-.31,3.22-3.33,8a6.52,6.52,0,0,0-1.05,3.34c-.09,3-1.24,3.32-1.24,3.32s-1.39.38-2.36-4a10,10,0,0,0-1-2.58A44.64,44.64,0,0,0,113.51,65.66Z"/><path class="cls-1" d="M121.23,47.24s6.87,8.22-.18,21a1,1,0,0,1-1.37.33c-4.53-3.1-7.89-11.35-8.87-14a.25.25,0,0,1,.39-.28c1.75,1.42,6.25,5.22,7.24,7.47a1.38,1.38,0,0,0,1.23.86h0a1.2,1.2,0,0,0,1.15-1.09C121.11,59.09,122,49.74,121.23,47.24Z"/><path class="cls-1" d="M111.84,36.37a14.31,14.31,0,0,1,5.52,11.29V54.1a67.56,67.56,0,0,0-7.94-6,12,12,0,0,1-5.13-5.86l10.08,7s1,.66,1.44-.22a1.37,1.37,0,0,0-.12-1.3C114.32,45.53,114.05,41.5,111.84,36.37Z"/><path class="cls-1" d="M100.49,31.44s5.53,8.88,9.18,9.67C109.76,36.37,100.49,31.44,100.49,31.44Z"/><path class="cls-1" d="M41.23,122.65A15.78,15.78,0,0,1,35,115.12a77.21,77.21,0,0,0-7.65-8.76.12.12,0,0,0-.21.09c.05,2.1,3,10,6.52,13a.84.84,0,0,1-.38,1.48,4.18,4.18,0,0,1-2.32-.48,6.68,6.68,0,0,1-.79-.42,8.48,8.48,0,0,0-.81-.51,3.67,3.67,0,0,0-.72-.2c-.32-.05-.65-.1-1-.12-1.14-.08-2.28-.09-3.41-.08l-2.15,0c-.57,0-1.14,0-1.71,0l-.57,0c-1.5-.13-5.81-2.91-7.17-3.92-.06,0-.15,0-.1.1,1.54,2.12,8.91,10.65,19.77,8.48,2.68-.65,2-2.15,8.84-1A.08.08,0,0,0,41.23,122.65Z"/><path class="cls-1" d="M25.12,114.6c.35,0-2.08-3.42-2.33-11.16-.74-4.79-3.94-10-3.94-10-1,3.77-.72,11.88,2,15.48.84,2.41-.35,3.6-4.39-1-5.82-4-10.4-4.83-12.87-8.82S6.3,114.83,25.12,114.6Z"/><path class="cls-1" d="M14.51,102.65c.13.06-.69-8.63.15-11.54s-.3-10.41-.3-10.41S11.2,87.07,11.65,93c.1,2.17.64,5.87-3.16.3A85.67,85.67,0,0,0,0,83.22C-.4,91.27,10.56,100.63,14.51,102.65Z"/><path class="cls-1" d="M14.32,66.3a.09.09,0,0,1,.16.07c-.16,1.53-1,8.83-3.37,13.25a52.64,52.64,0,0,0-2.83,5.81.3.3,0,0,1-.48.13,19.39,19.39,0,0,1-6.31-8.9C-.21,71-.28,64,1.12,64.9c1,1.4.32,3.23,3.33,8a6.65,6.65,0,0,1,1.06,3.34c.08,3,1.23,3.33,1.23,3.33s1.39.38,2.36-4a10.09,10.09,0,0,1,1-2.58A44.29,44.29,0,0,1,14.32,66.3Z"/><path class="cls-1" d="M6.59,47.89s-6.86,8.21.18,21a1,1,0,0,0,1.37.33c4.54-3.1,7.89-11.36,8.88-14a.25.25,0,0,0-.4-.28c-1.74,1.42-6.24,5.22-7.24,7.47a1.38,1.38,0,0,1-1.23.86h0A1.22,1.22,0,0,1,7,62.19C6.72,59.74,5.8,50.39,6.59,47.89Z"/><path class="cls-1" d="M16,37a14.3,14.3,0,0,0-5.53,11.29v6.43a69.1,69.1,0,0,1,7.94-6,12,12,0,0,0,5.13-5.87l-10.08,7s-1,.67-1.44-.22a1.37,1.37,0,0,1,.13-1.3C13.5,46.17,13.77,42.15,16,37Z"/><path class="cls-1" d="M27.33,32.09S21.81,41,18.16,41.75C18.06,37,27.33,32.09,27.33,32.09Z"/><path class="cls-1" d="M47.27,134.3l1.11,1s10.35-9.91,15.53-9.91,16.2,10.06,16.2,10.06l1.55-.66s-11.47-9.54-13.91-9.77c3.33-1,9.56,2.33,12.21,3.85,2.19,1.26,16.86,4.73,23.89-1.92-5.63,3-18.79-1-23.81-2.7a12.59,12.59,0,0,0-4.35-.65c-3.29.1-9.15.36-11.49,1a43,43,0,0,0-22.19.67c-9.24,2.95-14.42,2.44-18.19.88,3.77,3.85,16.94,6.73,25,2.15s12.42-3.4,12.42-3.4S50.3,131,47.27,134.3Z"/></g><path class="cls-1" d="M43.52,87.66a23.42,23.42,0,0,1-10.1,4.74l-.67.11a35.3,35.3,0,0,1-4.5-13.68H51.66c-.35.39-.64.72-.82.94a1.17,1.17,0,0,1-.47.33C48.6,80.87,44.5,83.11,43.52,87.66Z"/><path class="cls-1" d="M56.15,83.75a19.22,19.22,0,0,0,3.6-4.11,6,6,0,0,0,.4-.81h5c-.88,3-2.42,4.86-4.58,5.38S56.74,84.59,56.15,83.75Z"/><path class="cls-1" d="M69.89,81.78c.24-1,.44-1.86.58-2.67a2.74,2.74,0,0,0,0-.28H72.3A9.55,9.55,0,0,1,69.89,81.78Z"/><path class="cls-1" d="M99.17,78.83a35.69,35.69,0,0,1-56.79,24.53V103c3.17-1.74,10.88-5.78,13.28-6.32a68.34,68.34,0,0,0,12.52-3.28c8.51-1.74,11.35-6.46,12.89-9,.17-.29.34-.56.49-.8s.49-.73.73-1.07a13.62,13.62,0,0,0,1.85-3.26,4.52,4.52,0,0,0,.11-.47Z"/><path class="cls-1" d="M82.6,78.83a21.51,21.51,0,0,1-2.39,3.92c-1.5,2.29-3.58,7.36-12.46,9.13a67.49,67.49,0,0,1-12.39,3.26c-3.26.69-14.16,6.7-14.59,6.94h0a35.35,35.35,0,0,1-7-7.87,2.14,2.14,0,0,1-.1-.22S40.42,92.84,45,88.48c.62-4.17,4.48-6.24,6-6.9a2.83,2.83,0,0,0,1-.77c.41-.49,1.07-1.23,1.82-2,1.63-1.62,3.7-3.26,4.66-2.26.51.54.32,1.37-.2,2.26a19,19,0,0,1-3.44,3.87,1.33,1.33,0,0,0-.33,1.57c.54,1.11,2.06,2.56,6.37,1.51,3.52-.86,5.13-4.13,5.86-7a20.39,20.39,0,0,0,.62-4.11,1.11,1.11,0,0,1,.34-.81c.47-.45,2.11-.62,1.12,4.92-.24,1.28-.61,2.88-1.17,4.84-.11,1.55,2.73-.33,2.73-.33s2-1,3.67-4.51a10.54,10.54,0,0,0,1.33-3.48c.49-3.82,2.25-1.54,1.12,3.48-.15.67-.34,1.36-.56,2.06a.33.33,0,0,0,.56.33,11,11,0,0,0,1.71-2.39c.83-1.51,1.3-2.76,2.45-2.85s1,1.12.81,1.61c0,0,0,.07.07,0a.57.57,0,0,1,.64,0C82.69,77.88,82.76,78.29,82.6,78.83Z"/><path class="cls-1" d="M102,75a.32.32,0,0,1-.32.32H64.74L66,76.54A.33.33,0,0,1,66,77a.32.32,0,0,1-.23.1.29.29,0,0,1-.23-.1L64,75.48v1.33a.33.33,0,0,1-.65,0V75.52L61.86,77a.33.33,0,0,1-.23.1.33.33,0,0,1-.22-.56l1.26-1.26H25a.32.32,0,1,1,0-.64H63.18L40.44,51.92l-4.2-4.21a.32.32,0,0,1,.45-.45l4.2,4.2.47.47,22,22V42.15H64V74L90.27,47.7a.31.31,0,0,1,.45,0,.32.32,0,0,1,0,.46l-4.21,4.21L64.23,74.66h37.4A.32.32,0,0,1,102,75Z"/><path class="cls-1" d="M69.73,68.69a8.49,8.49,0,0,0-6-2.49h0a8.51,8.51,0,0,0-6,2.5h0a8.52,8.52,0,0,0-2.5,6,2,2,0,0,0,0,.25,8.28,8.28,0,0,0,.22,1.73h.66A8.29,8.29,0,0,1,55.83,75v-.25a7.85,7.85,0,0,1,2.31-5.57h0a7.79,7.79,0,0,1,5.55-2.31h0a7.9,7.9,0,0,1,7.89,7.88,2,2,0,0,1,0,.25,8.29,8.29,0,0,1-.24,1.73H72A8.28,8.28,0,0,0,72.23,75a2,2,0,0,0,0-.25A8.51,8.51,0,0,0,69.73,68.69Z"/><path class="cls-1" d="M75.21,63.22a16.24,16.24,0,0,0-11.5-4.76h0A16.29,16.29,0,0,0,47.44,74.73V75a16.57,16.57,0,0,0,.12,1.73h.65A14.23,14.23,0,0,1,48.09,75a2,2,0,0,1,0-.25A15.65,15.65,0,0,1,63.69,59.11h0A15.64,15.64,0,0,1,79.34,74.73a2,2,0,0,1,0,.25,12.47,12.47,0,0,1-.12,1.73h.65A16.57,16.57,0,0,0,80,75v-.25A16.19,16.19,0,0,0,75.21,63.22Z"/><path class="cls-1" d="M81.38,57.05a24.93,24.93,0,0,0-17.67-7.31h0a25,25,0,0,0-25,25V75c0,.58,0,1.16.08,1.73h.65c0-.58-.08-1.15-.08-1.73v-.25A24.38,24.38,0,0,1,63.69,50.38h0A24.39,24.39,0,0,1,88.07,74.73a2,2,0,0,1,0,.25c0,.58,0,1.15-.07,1.73h.64c.05-.57.07-1.15.08-1.73v-.25A24.91,24.91,0,0,0,81.38,57.05Z"/><path class="cls-1" d="M87,51.91l-.22-.23-.23-.23A32.46,32.46,0,0,0,64,42.15h-.65a32.5,32.5,0,0,0-22.47,9.31l-.22.22-.23.24a32.46,32.46,0,0,0-9.32,22.74V75c0,.11,0,.22,0,.32,0,.47,0,.94.05,1.41h.64c0-.47,0-.94-.05-1.41V75a2,2,0,0,1,0-.25v-.07a31.83,31.83,0,0,1,9.15-22.28l.22-.23.23-.22a31.82,31.82,0,0,1,22-9.14H64a31.85,31.85,0,0,1,22,9.13l.23.23.23.22a31.85,31.85,0,0,1,9.15,22.29V75c0,.11,0,.22,0,.32,0,.47,0,.94-.05,1.41h.64c0-.47.05-.94.05-1.41,0-.1,0-.21,0-.32v-.32A32.45,32.45,0,0,0,87,51.91Z"/><path class="cls-1" d="M62.91,46.32c-.11,0-12.76,5.4-12.76,5.4s-1.48.89.22.78c0,0,3.58-1.11,4.44-1.34,0,0,.89,0,.19.63s-6,3.52-6,3.52.66,1.59,4.77-.59,4.69-1.82,4.69-1.82.34.67-2.73,3c-.76.52-.63.72-.31.79a1.41,1.41,0,0,0,1.25-.35l13-11.5s2.07-.85,1,.85a25.33,25.33,0,0,1-3.26,3,12,12,0,0,0,11.21,1s7.69-2,9-7.88c.72-1.41,2.82-2,3.59-2.2a.08.08,0,0,0,0-.16L89.91,39a2.55,2.55,0,0,0-4.15-.37c-2.47,1.11-9.43,2.33-11.5-6-1-3.25,1.63-9.61,3.7-12.06,1.11-2.81.07-8,.22-9.39S80.7.72,79.44.06s-1.63,4.73-2.66,6c-.84-.21-.45-1.91-.16-2.88a.07.07,0,0,0-.13,0,22.14,22.14,0,0,0-2.38,7.22c-1.47-.15-.37-3.7-.37-3.7s-6.13.15-4.29,20.12c-3-2.37-1.18-8.8-1.18-8.8s-4.07,5.76-1.11,15.53c0,0-.23.86-1.07-.14s-2.39-1.93-1.34,1.48,2.12,3.76,2,5-4-4.22-4.26-5.29.41-3.48,1.93-4S55,22.13,51.59,15.77s-3.81-6.69-3.81-6.69.45,5.95,2,8.32c-1.15-.48-.22,3.26,4.4,7.77a7.79,7.79,0,0,0-2.15-.41s1.67,7.73,9.1,9.54c2.85,2-3.4-.29-3.4-.29s-1.37,3.36,9.17,9.13C69.09,44.14,62.91,46.32,62.91,46.32Z"/><path class="cls-1" d="M53.36,15.71l3,4.09s10.26-3.55,11.34-3.59,1.14-2.08-.64-2.37S56.91,14.68,53.36,15.71Z"/><path class="cls-1" d="M47.64,18.13S49.21,22,50.3,22.57c0,0-13.61,10.75-16.77,16.27v-11S44.78,19,47.64,18.13Z"/><path class="cls-1" d="M85.11,10.93l-4.73,5.36A1.69,1.69,0,0,0,80,17.36v.33a3.72,3.72,0,0,0,1.32,3l2.63,2.24A1.69,1.69,0,0,1,84.5,24l.31,2.78,8,8.43a1.19,1.19,0,0,1,.3,1l-.14.74a5.45,5.45,0,0,1-.22.79c-.28.8.1.91.46,1s1.24,0,1.3.29c.1.5-1.84,1.36-1.84,1.36s3.76.28,5.44-1.7l0-5.28-7.84-9A5.28,5.28,0,0,1,89,21.38l0-.49-5.23-4.83L85.21,14Z"/><path class="cls-1" d="M45,46.65a10.65,10.65,0,0,0-2.29-.37c-.59.08.07-2,.07-2l-2.44-1.7s1,2.88.74,4-2.22,1.11-2.22,1.11l3.33.15s1.11,1.92.82,2.73,1.4-1.33,1.11-2.36Z"/><path class="cls-1" d="M43.27,60.11s4.51,2.3,4.44,3.41S46.6,64,46.6,64l.52,1.11,2.36-1.4s1.48-1.11,2.08-.52,1.25,1.33,1.25,1.33l-.07-1.92-2-.89a13,13,0,0,1-2,.82c-.67.14-3.63-3.63-5.33-3.48S43.27,60.11,43.27,60.11Z"/><path class="cls-1" d="M55.62,65.37s1.78-3.48,4.44-4.15,3.63-.74,4-.59-2.82.74-3.55,1.63a1.46,1.46,0,0,1-1.71.44S56.36,63.89,55.62,65.37Z"/><path class="cls-1" d="M67.31,65.22s-2.44,1.18-2.29,3c0,0-1.7.89-2.37.15s-.89,1-.89,1-1-.14-.81-1.4,3-.08,3-.08S65,64.55,67.31,65.22Z"/><path class="cls-1" d="M66.8,117.22a1.88,1.88,0,0,1-.66.24l1.32-.08-.65,0Z"/><path class="cls-1" d="M91.14,42l.28.42s9,7.7,7.88,12.73c0,0-1.64.47-4.28-1.58a37.32,37.32,0,0,1,3.9,36l4.59,2-.34.79-4.6-2a36.86,36.86,0,0,1-6.08,9.39l1,.85a1.81,1.81,0,0,1,.42-1,1.72,1.72,0,0,1,1.14-.69,1.57,1.57,0,0,1,1.12.4l1.94,1.62-.56.66L95.7,100a.71.71,0,0,0-1.18.15,1,1,0,0,0-.27.68.8.8,0,0,0,.33.63L96.39,103l-.56.66-3.92-3.27c-.32.35-.64.7-1,1A38.15,38.15,0,0,1,88,104.06a2.38,2.38,0,0,1,1.56-.3l.15,0-.12.91-.17,0a1.63,1.63,0,0,0-1.33.36,1.71,1.71,0,0,0-.58.71.45.45,0,0,0,0,.44c.15.19.46.15,1.18-.16l.74-.31c1.19-.52,1.77-.07,2,.23a1.41,1.41,0,0,1,.27,1.12,2.42,2.42,0,0,1-1,1.34,3.12,3.12,0,0,1-1.88.72,1.84,1.84,0,0,1-.33,0l-.15,0,.14-.89h.14a2,2,0,0,0,1.53-.43,1.81,1.81,0,0,0,.6-.72.51.51,0,0,0-.05-.5c-.18-.22-.54-.22-1,0l-.46.2-.37.17c-.77.32-1.56.53-2.09-.14a1.48,1.48,0,0,1,.3-2c-1,.76-2,1.47-3.1,2.13l2.63,4.36-.74.45-2.63-4.37a36.84,36.84,0,0,1-11.82,4.4.64.64,0,0,1,.2.36.56.56,0,0,1-.08.43.44.44,0,0,1-.33.2l-.11,0a.5.5,0,0,1-.49-.46.57.57,0,0,1,.07-.42,37.35,37.35,0,0,1-6.18.52,37,37,0,0,1-20.44-6.1l-2.86,4.21-.71-.48,2.86-4.22c-.2-.14-.4-.27-.6-.42a.6.6,0,0,1-.55.59.52.52,0,0,1-.31-.1.5.5,0,0,1-.08-.75.55.55,0,0,1,.3-.21,36.39,36.39,0,0,1-3.94-3.43c-.48-.47-.94-1-1.39-1.46l-.95.9a1.65,1.65,0,0,1,.92.52,1.79,1.79,0,0,1,.53,1.45,2.3,2.3,0,0,1-.78,1.34,2.17,2.17,0,0,1-1.45.67,1.77,1.77,0,0,1-1.32-.64,1.68,1.68,0,0,1-.48-.93l-.16.16-.6-.63,3.73-3.49a38.39,38.39,0,0,1-2.77-3.64l-2.7,1.63a2.34,2.34,0,0,1-1.16.37,1.7,1.7,0,0,1-1.48-1A1.93,1.93,0,0,1,28.08,95l.06-.14.86.23-.08.17a1.19,1.19,0,0,0,0,1,.93.93,0,0,0,1.43.27l2.71-1.64a37.3,37.3,0,0,1-.15-39.46c-1.15,1-2.38,1.65-3.36,1.2C26.38,54,40.72,40.39,40.72,40.39l1.08-1.07a42.41,42.41,0,0,0,8.92,75.85,1.16,1.16,0,0,1-.55-1.56l.65-1.84-.41-.15.27-.77.42.14.19-.54,1-.16-.34,1,1.08.38-.27.77-1.08-.38L51,113.88c-.17.46.08.55.16.57a.65.65,0,0,0,.59,0l.14-.06.39.79-.17,0a2,2,0,0,1-.69.13,1.33,1.33,0,0,1-.4,0c1,.34,2,.64,3,.9A1.79,1.79,0,0,1,53,115.3a2.18,2.18,0,0,1-.11-1.51,1.93,1.93,0,0,1,1.85-1.64,2.49,2.49,0,0,1,.53.07,1.87,1.87,0,0,1,1.32,2.5c0,.07,0,.12-.06.18l0,.18-2.81-.71a1,1,0,0,0,.82,1,1.27,1.27,0,0,0,1-.11l.14-.08L56,116l-.14.08a2,2,0,0,1-1,.27,1.32,1.32,0,0,1-.28,0,43,43,0,0,0,5.11.92l.3-4,.85.06,0,.26a1.81,1.81,0,0,1,1.06-.24,1.79,1.79,0,0,1,1.2.49,1.5,1.5,0,0,1,.35,1.18l-.18,2.52,1.36,0h.73a1.28,1.28,0,0,1-1.27-1.22A1.19,1.19,0,0,1,65,115a5.3,5.3,0,0,1,1.56-.23h.19a.56.56,0,0,0-.24-.48,1,1,0,0,0-.63-.13,1.55,1.55,0,0,0-1,.35l-.11.11-.63-.58.13-.12a2.4,2.4,0,0,1,1.63-.6c1.09,0,1.73.49,1.76,1.45l.08,2.56c.68-.05,1.36-.11,2-.19a1.06,1.06,0,0,1-.66-.24,1.35,1.35,0,0,1-.43-.91l-.24-2-.43,0-.1-.81.43,0-.07-.58.81-.56.12,1,1.13-.14.1.81-1.13.14.23,1.92a.58.58,0,0,0,.15.37.27.27,0,0,0,.25.08.72.72,0,0,0,.51-.3l.1-.12.69.53-.12.13a1.92,1.92,0,0,1-.84.53,44.09,44.09,0,0,0,4.61-.87h-.27a1.63,1.63,0,0,1-1-.29,2.2,2.2,0,0,1-.83-1.31,2.16,2.16,0,0,1,.1-1.54,1.83,1.83,0,0,1,1.23-.94,1.88,1.88,0,0,1,1.54.22,2.28,2.28,0,0,1,.83,1.31,1.85,1.85,0,0,1-1.18,2.42c.86-.22,1.7-.48,2.54-.75l-1.41-3.76.8-.31.09.25a1.81,1.81,0,0,1,.85-.66h0a1.48,1.48,0,0,1,2.12.87l.89,2.36-.81.3-.84-2.24a1,1,0,0,0-.37-.52.88.88,0,0,0-.74,0,.87.87,0,0,0-.6,1.17l.83,2.2-.76.29a42.18,42.18,0,0,0,5.39-2.18,2.08,2.08,0,0,1-.77.16,1.16,1.16,0,0,1-1.09-.67c-.62-1.21,1-2,1.63-2.35l.18-.08c-.09-.18-.34-.56-1.06-.19a1.55,1.55,0,0,0-.79.76l0,.15-.82-.26.07-.17a2.47,2.47,0,0,1,1.22-1.23,2.06,2.06,0,0,1,1.18-.25,1.4,1.4,0,0,1,1,.82l1.16,2.29-.77.39-.09-.17a2,2,0,0,1-.66.61,42.41,42.41,0,0,0,7.52-71ZM31.36,101.27l.21-.17a1.66,1.66,0,0,1-.86-.6,1.47,1.47,0,0,1,.3-2.29l2-1.48.52.69-1.94,1.46a.79.79,0,0,0-.39.51.88.88,0,0,0,.25.65,1,1,0,0,0,.63.42.81.81,0,0,0,.64-.19l1.88-1.41.52.68L31.88,102Zm6.34,6.51.12-.14a2.13,2.13,0,0,1-1-.49,2.17,2.17,0,0,1-.67-.94,1.15,1.15,0,0,1,.25-1.14,1.21,1.21,0,0,1,1.5-.28,5.42,5.42,0,0,1,1.3.9l.14.12a.59.59,0,0,0,.15-.52,1.1,1.1,0,0,0-.37-.52,1.58,1.58,0,0,0-1-.44H38l-.07-.86h.18a2.37,2.37,0,0,1,1.6.65,1.93,1.93,0,0,1,.67,1A1.34,1.34,0,0,1,40,106.4l-1.67,1.94Zm1.44,1.13,2.4-3.22.69.51-2.4,3.23ZM43.8,112l2.46-4.43L47,108l-2.46,4.44Zm6,.13-1,2.29-.78-.36,1-2.18a.88.88,0,0,0,.1-.62c-.05-.2-.23-.36-.55-.5a.86.86,0,0,0-1.25.4l-1,2.14-.78-.36,1.67-3.65.78.35-.11.24a1.74,1.74,0,0,1,1.07.14A1.47,1.47,0,0,1,49.76,112.11Zm9.8,1.88-.33,0a1,1,0,0,0-.69.14,1.25,1.25,0,0,0-.46.87l-.32,2-.85-.14.65-4,.84.14,0,.33a1.58,1.58,0,0,1,1.08-.21l.27,0Zm12,2.88-.7-4,.85-.15.71,4Zm23.32-13a2,2,0,0,1-.65,1.46,1.83,1.83,0,0,1-1.31.59,2.05,2.05,0,0,1-1.48-.71,1.91,1.91,0,0,1-.09-2.85,2,2,0,0,1,1.4-.61H93v.86h-.17a1.08,1.08,0,0,0-.79.35,1.1,1.1,0,0,0,.12,1.65,1.33,1.33,0,0,0,.77.44,1,1,0,0,0,.82-.32h0a1.12,1.12,0,0,0,.38-.85v-.17h.85Zm4.82-5.16a1.77,1.77,0,0,1-1.49.86A2.34,2.34,0,0,1,97,99.12a1.85,1.85,0,0,1-.66-2.73,1.82,1.82,0,0,1,1.29-.87,2.54,2.54,0,0,1,2.45,1.64A1.84,1.84,0,0,1,99.75,98.69Zm2.3-3.88a1.76,1.76,0,0,1-1.59,1,2.55,2.55,0,0,1-1.13-.3,2.25,2.25,0,0,1-1.08-1.1,1.8,1.8,0,0,1,.13-1.54,1.82,1.82,0,0,1,1.19-1,2.22,2.22,0,0,1,1.53.26,2.25,2.25,0,0,1,1.08,1.1A1.86,1.86,0,0,1,102.05,94.81Z"/><path class="cls-1" d="M101.31,94.41a1.06,1.06,0,0,1-1.58.36,1.42,1.42,0,0,1-.67-.63,1.07,1.07,0,0,1,.91-1.42,1.78,1.78,0,0,1,.73.2A1.07,1.07,0,0,1,101.31,94.41Z"/><path class="cls-1" d="M99.06,98.21a1.06,1.06,0,0,1-1.61.19,1.44,1.44,0,0,1-.6-.7.94.94,0,0,1,.16-.85.93.93,0,0,1,.79-.47,1.57,1.57,0,0,1,.81.28A1.06,1.06,0,0,1,99.06,98.21Z"/><path class="cls-1" d="M55.79,114.08l-1.94-.5A1,1,0,0,1,55,113,.93.93,0,0,1,55.79,114.08Z"/><path class="cls-1" d="M36.5,102.75a1.52,1.52,0,0,1-.5.79,1.36,1.36,0,0,1-.8.43.93.93,0,0,1-.78-.35,1,1,0,0,1-.32-.69s0-.08,0-.12a1.51,1.51,0,0,1,.49-.78,1.38,1.38,0,0,1,.91-.44,1,1,0,0,1,.7.34A1,1,0,0,1,36.5,102.75Z"/><path class="cls-1" d="M63.15,117.46c-1.16,0-2.31-.12-3.45-.25l.83.06.17-2.35a.87.87,0,0,1,1-.81c.73.06.85.37.81.9l-.17,2.39Z"/><path class="cls-1" d="M38.87,106.42l-.36.42c-.25.29-.88-.13-1.1-.32a1.31,1.31,0,0,1-.35-.46.38.38,0,0,1,0-.43.39.39,0,0,1,.3-.13.94.94,0,0,1,.43.13,4.88,4.88,0,0,1,.93.69Z"/><path class="cls-1" d="M83.66,111.92a2.24,2.24,0,0,1-.57.41c-.12.07-.73.35-.93,0s.71-1,1.26-1.27l.14-.07.25.5S83.91,111.65,83.66,111.92Z"/><path class="cls-1" d="M66.77,116.16c0,.06,0,.24-.34.38a2.16,2.16,0,0,1-.69.13c-.14,0-.81,0-.83-.44s1.07-.6,1.68-.62h.16Z"/><path class="cls-1" d="M74.91,115.37a.93.93,0,0,1-.86-.13,1.39,1.39,0,0,1-.46-.79c-.14-.55-.13-1.24.7-1.45a1.33,1.33,0,0,1,.32,0c.64,0,.9.58,1,1A1.05,1.05,0,0,1,74.91,115.37Z"/><text class="cls-2" transform="translate(51.79 122.65)">Sin<tspan class="cls-3" x="6.94" y="0">c</tspan><tspan x="9.33" y="0">e 1999</tspan></text></g></g></svg>